<svg width="24" height="24" viewBox="0 0 24 24" fill="none" xmlns="http://www.w3.org/2000/svg">
<path d="M21.7 9.60017C20.7 5.70017 17.5 2.70017 13.6 2.10017C10.7 1.60017 7.8 2.50017 5.6 4.40017C3.3 6.30017 2 9.20016 2 12.2002C2 16.6002 4.8 20.5002 8.9 21.9002C9.2 22.0002 9.5 22.1002 9.9 22.1002C10.5 22.1002 11.2 21.9002 11.7 21.5002C12.5 20.9002 13 19.9002 13 18.9002C13 17.5002 14.1 16.6002 15.6 16.6002H17.7C20.1 16.6002 22 14.7002 22 12.3002C22 11.3002 21.9 10.5002 21.7 9.60017Z" fill="black"/>
<path d="M8.4798 14.2782C9.25 13.8451 9.52321 12.8696 9.09004 12.0994C8.65687 11.3292 7.68136 11.0559 6.91116 11.4891C6.14097 11.9223 5.86775 12.8978 6.30092 13.668C6.73409 14.4382 7.70961 14.7114 8.4798 14.2782Z" fill="white"/>
<path d="M10.6756 9.27873C11.4458 8.84556 11.719 7.87004 11.2858 7.09985C10.8527 6.32965 9.87716 6.05644 9.10696 6.48961C8.33677 6.92277 8.06355 7.89829 8.49672 8.66849C8.92989 9.43868 9.90541 9.71189 10.6756 9.27873Z" fill="white"/>
<path d="M16.0701 9.98478C16.8403 9.55161 17.1135 8.57609 16.6804 7.8059C16.2472 7.03571 15.2717 6.76249 14.5015 7.19566C13.7313 7.62883 13.4581 8.60435 13.8913 9.37454C14.3244 10.1447 15.2999 10.4179 16.0701 9.98478Z" fill="white"/>
</svg>
