<svg width="24" height="24" viewBox="0 0 24 24" fill="none" xmlns="http://www.w3.org/2000/svg">
<path d="M21.7 9.60017C20.7 5.70017 17.5 2.70017 13.6 2.10017C10.7 1.60017 7.8 2.50017 5.6 4.40017C3.3 6.30017 2 9.20016 2 12.2002C2 16.6002 4.8 20.5002 8.9 21.9002C9.2 22.0002 9.5 22.1002 9.9 22.1002C10.5 22.1002 11.2 21.9002 11.7 21.5002C12.5 20.9002 13 19.9002 13 18.9002C13 17.5002 14.1 16.6002 15.6 16.6002H17.7C20.1 16.6002 22 14.7002 22 12.3002C22 11.3002 21.9 10.5002 21.7 9.60017ZM17.7 14.5002H15.6C13 14.5002 11 16.4002 11 18.8002C11 19.2002 10.8 19.5002 10.5 19.8002C10.3 19.9002 10 20.1002 9.5 20.0002C6.2 18.9002 4 15.7002 4 12.2002C4 9.80016 5 7.50017 6.9 5.90017C8.3 4.70017 10.1 4.00017 12 4.00017C12.4 4.00017 12.9 4.00017 13.3 4.10017C16.4 4.60017 19 7.00017 19.8 10.1002C20 10.8002 20.1 11.5002 20.1 12.2002C20 13.5002 19 14.5002 17.7 14.5002Z" fill="black"/>
<path d="M8.47956 14.2782C9.24975 13.8451 9.52297 12.8696 9.0898 12.0994C8.65663 11.3292 7.68111 11.0559 6.91092 11.4891C6.14072 11.9223 5.86751 12.8978 6.30068 13.668C6.73385 14.4382 7.70936 14.7114 8.47956 14.2782Z" fill="black"/>
<path d="M10.6756 9.27921C11.4458 8.84605 11.719 7.87053 11.2858 7.10033C10.8527 6.33014 9.87716 6.05693 9.10696 6.49009C8.33677 6.92326 8.06355 7.89878 8.49672 8.66897C8.92989 9.43917 9.90541 9.71238 10.6756 9.27921Z" fill="black"/>
<path d="M16.0701 9.98478C16.8403 9.55161 17.1135 8.57609 16.6804 7.8059C16.2472 7.03571 15.2717 6.76249 14.5015 7.19566C13.7313 7.62883 13.4581 8.60435 13.8913 9.37454C14.3244 10.1447 15.2999 10.4179 16.0701 9.98478Z" fill="black"/>
</svg>
